<svg xmlns="http://www.w3.org/2000/svg" width="24" height="24" fill="none" viewBox="0 0 24 24"><path fill="#637381" d="M16.984 2H7C4.254 2 2 4.254 2 7.016V17c0 2.746 2.254 5 5 5h9.984A5.027 5.027 0 0 0 22 16.984V7.016A5.027 5.027 0 0 0 16.984 2" opacity=".4"/><path fill="#637381" fill-rule="evenodd" d="M14.254 18.19c2.175 0 3.952-1.745 3.968-3.904v-3.159l-.032-.159-.11-.222-.175-.143c-.105-.076-.385-.083-.695-.09-.397-.009-.841-.02-1.02-.18-.206-.192-.248-.521-.304-.963l-.013-.1c-.093-.81-.175-.976-.283-1.194l-.066-.14c-.54-1.158-2.032-2.126-3.048-2.126H9.714A3.88 3.88 0 0 0 5.81 9.698v4.604a3.88 3.88 0 0 0 3.904 3.889zM9.762 8.985h2.19c.429 0 .762.302.762.714 0 .413-.349.715-.762.715h-2.19c-.413 0-.762-.302-.762-.715 0-.412.35-.714.762-.714m0 4.445h4.46c.413 0 .746.38.746.793s-.333.794-.746.794h-4.46c-.429 0-.762-.381-.762-.794 0-.412.35-.793.762-.793" clip-rule="evenodd"/></svg>