<svg xmlns="http://www.w3.org/2000/svg" width="512" height="512" viewBox="0 0 512 512"><linearGradient id="a" x1="100%" x2="50%" y1="5.663%" y2="50%"><stop offset="0" stop-color="#007b55"/><stop offset="1" stop-color="#00ab55"/></linearGradient><linearGradient id="b" x1="50%" x2="50%" y1="0%" y2="100%"><stop offset="0" stop-color="#5be584"/><stop offset="1" stop-color="#00ab55"/></linearGradient><g fill="none" fill-rule="evenodd"><path fill="url(#a)" d="M92.807 83.107c44.288 22.888 46.308 23.934 46.4 23.98.013.008.642.333 44.793 23.152q-39.107 72.81-49.868 86.18c-10.76 13.37-22.496 23.492-36.93 29.333-30.346 14.262-68.07 14.929-97.202-2.704z" transform="translate(14 128)"/><path fill="url(#b)" d="M430.31 101.726c-46.27-80.956-94.1-157.228-149.043-45.344C273.751 70.766 268.272 98.72 256 98.72v-.142c-12.272 0-17.75-27.953-25.265-42.337C175.79-55.644 127.96 20.628 81.69 101.584c-3.483 6.106-6.828 11.932-9.69 16.996 106.038-67.127 97.11 135.667 184 137.278V256c86.891-1.611 77.962-204.405 184-137.28-2.86-5.062-6.206-10.888-9.69-16.994M436 256c26.509 0 48-21.491 48-48s-21.491-48-48-48-48 21.491-48 48 21.491 48 48 48" transform="translate(14 128)"/></g></svg>