<svg xmlns="http://www.w3.org/2000/svg" xmlns:xlink="http://www.w3.org/1999/xlink" width="28" height="20" viewBox="0 0 28 20"><defs><rect id="a" width="28" height="20" rx="3"/><mask id="b" fill="#fff"><use xlink:href="#a" fill-rule="evenodd"/></mask></defs><g fill="none" fill-rule="evenodd"><use xlink:href="#a" fill="#0a17a7"/><path fill="#fff" d="m29.282-1.916 1.492 2.21-9.449 6.373H28v6.666h-6.675l9.449 6.373-1.492 2.21-11.95-8.06.001 7.477h-6.666v-7.477l-11.95 8.06-1.49-2.21 9.447-6.373H0V6.667h6.674L-2.774.294l1.492-2.21 11.948 8.06v-7.477h6.667v7.477z" mask="url(#b)"/><g stroke="#db1f35" stroke-linecap="round" stroke-width=".667"><path d="M18.668 6.332 31.333-2" mask="url(#b)"/><path d="m20.013 21.35 11.354-7.652" mask="url(#b)" transform="matrix(1 0 0 -1 0 35.048)"/><path d="M8.006 6.31-3.837-1.671" mask="url(#b)"/><path d="m9.29 22.31-13.127-8.705" mask="url(#b)" transform="matrix(1 0 0 -1 0 35.915)"/></g><path fill="#e6273e" d="M0 12h12v8h4v-8h12V8H16V0h-4v8H0z" mask="url(#b)"/></g></svg>