<svg xmlns="http://www.w3.org/2000/svg" width="24" height="24" viewBox="0 0 24 24"><linearGradient id="a" x1="39.907%" x2="113.315%" y1="39.91%" y2="113.318%"><stop offset="0" stop-color="#a7f3ce"/><stop offset="1" stop-color="#61db99"/></linearGradient><linearGradient id="b" x1="0%" x2="100%" y1="0%" y2="100%"><stop offset="0" stop-color="#5be584"/><stop offset="1" stop-color="#00ab55"/></linearGradient><linearGradient id="c" x1="0%" x2="100%" y1="0%" y2="100%"><stop offset="0" stop-color="#74caff"/><stop offset="1" stop-color="#0c53b7"/></linearGradient><g fill="none" fill-rule="evenodd"><path fill="url(#a)" fill-rule="nonzero" d="M15.955 7.272a7.895 7.895 0 0 1 8.044 7.764 8 8 0 0 1-.185 1.87A14.4 14.4 0 0 0 23.456 20v2.013c0 .308-.25.558-.558.558h-2.013a14.4 14.4 0 0 0-3.094.358c-.6.133-1.227.197-1.87.184a7.895 7.895 0 0 1-7.764-8.043 7.92 7.92 0 0 1 7.798-7.798"/><path fill="url(#b)" d="M15.955 7.272a7.895 7.895 0 0 1 8.044 7.764 8 8 0 0 1-.185 1.87A14.4 14.4 0 0 0 23.456 20v2.013c0 .308-.25.558-.558.558h-2.013a14.4 14.4 0 0 0-3.094.358c-.6.133-1.227.197-1.87.184a7.895 7.895 0 0 1-7.764-8.043 7.92 7.92 0 0 1 7.798-7.798"/><path fill="url(#c)" d="M9.801.043A9.62 9.62 0 0 0 .001 9.5a9.7 9.7 0 0 0 .225 2.279c.274 1.239.436 2.5.436 3.769V18c0 .376.305.68.68.68h2.453c1.269 0 2.53.163 3.769.436.732.162 1.495.24 2.278.225a9.62 9.62 0 0 0 9.46-9.8 9.65 9.65 0 0 0-9.5-9.5"/><g fill="#0c53b7"><path d="M6.197 9.175a1.495 1.495 0 1 0-2.111 2.111l3.224 3.225A1.495 1.495 0 1 0 9.421 12.4z"/><path d="M10.424 9.175a1.495 1.495 0 1 0-2.111 2.111l3.225 3.225a1.495 1.495 0 1 0 2.111-2.111z"/><path d="M14.652 9.175a1.495 1.495 0 1 0-2.111 2.111l3.224 3.225a1.495 1.495 0 1 0 2.111-2.111z"/></g><g fill="#fff" fill-rule="nonzero"><circle cx="5.109" cy="10.198" r="1.495"/><circle cx="9.336" cy="10.198" r="1.495"/><circle cx="13.564" cy="10.198" r="1.495"/></g></g></svg>