<svg xmlns="http://www.w3.org/2000/svg" width="24" height="24" viewBox="0 0 24 24"><linearGradient id="a" x1="14.104%" x2="85.896%" y1="0%" y2="100%"><stop offset="0" stop-color="#ffe16a"/><stop offset="1" stop-color="#b78103"/></linearGradient><g fill="none" fill-rule="evenodd" transform="translate(0 1)"><path fill="url(#a)" d="M15.111 8.3h4.359c.381 0 .746.16 1.004.442l3.51 3.825v4.842a1.363 1.363 0 0 1-1.363 1.363h-1.073a2.385 2.385 0 1 0-4.77 0h-1.667z"/><circle cx="19.163" cy="18.772" r="2.385" fill="#7a4f01"/><path fill="#b78103" d="M15.111 12.567v6.205H7.852a2.385 2.385 0 0 0-4.77 0H1.379A1.363 1.363 0 0 1 .016 17.41V6.03a1.363 1.363 0 0 1 1.363-1.363h1.478a4.465 4.465 0 0 0 8.925 0h1.966c.753 0 1.363.61 1.363 1.363z"/><path fill="#74caff" stroke="#74caff" d="m11.785 4.517-.003.15a4.465 4.465 0 0 1-8.928-.15 4.465 4.465 0 1 1 8.93 0z"/><path fill="#7a4f01" d="M5.467 16.388a2.385 2.385 0 1 1 0 4.77 2.385 2.385 0 0 1 0-4.77"/><path fill="#0c53b7" d="M8.81 6.303a.4.4 0 0 1-.267-.105l-1.49-1.396a.4.4 0 0 1-.124-.285V1.621a.39.39 0 1 1 .781 0v2.727l1.367 1.28a.39.39 0 0 1-.267.675"/></g></svg>