<svg xmlns="http://www.w3.org/2000/svg" xmlns:xlink="http://www.w3.org/1999/xlink" width="24" height="24" viewBox="0 0 24 24"><defs><linearGradient id="b" x1="0%" x2="100%" y1="37.93%" y2="62.07%"><stop offset="0" stop-color="#ffa48d"/><stop offset="1" stop-color="#b72136"/></linearGradient><path id="a" d="M2.156.295h12a2 2 0 0 1 2 2v16h-16v-16a2 2 0 0 1 2-2"/><mask id="c" fill="#fff"><use xlink:href="#a" fill-rule="evenodd"/></mask></defs><g fill="none" fill-rule="evenodd"><path fill="url(#b)" d="m24 9.585-.703 8.935H.703L0 9.585l4-2.857h16z"/><g transform="translate(3.844 .719)"><use xlink:href="#a" fill="#d0f2ff"/><path fill="#74caff" d="M3.213 3.02h4.743c.11 0 .2.09.2.2v1.006a.2.2 0 0 1-.2.2H3.213a.2.2 0 0 1-.2-.2V3.22c0-.11.09-.2.2-.2m0 3.429H13.1c.11 0 .2.09.2.2v1.006a.2.2 0 0 1-.2.2H3.214a.2.2 0 0 1-.2-.2V6.649c0-.11.09-.2.2-.2m0 3.428H13.1c.11 0 .2.09.2.2v1.006a.2.2 0 0 1-.2.2H3.214a.2.2 0 0 1-.2-.2v-1.006c0-.11.09-.2.2-.2" mask="url(#c)"/></g><path fill="#ffa48d" d="M24 9.585v13.714l-12-1.115-12 1.115V9.585l9.6 6.857h4.8z"/><path fill="#ff4842" d="M24 9.585v13.714l-12-1.115v-5.742h2.4z"/><path fill="#ff4842" d="M24 23.299H0l12-8.571z"/><path fill="#b72136" d="M24 23.299H12v-8.571z"/></g></svg>