<svg xmlns="http://www.w3.org/2000/svg" xmlns:xlink="http://www.w3.org/1999/xlink" width="24" height="24" viewBox="0 0 24 24"><linearGradient id="b" x1="0%" x2="100%" y1=".004%" y2="99.996%"><stop offset="0" stop-color="#5be584"/><stop offset="1" stop-color="#00ab55"/></linearGradient><linearGradient id="a"><stop offset="0" stop-color="#ffe16a"/><stop offset="1" stop-color="#b78103"/></linearGradient><linearGradient xlink:href="#a" id="c" x1="0%" x2="100%" y1="33.335%" y2="66.665%"/><linearGradient xlink:href="#a" id="d" x1="46.26%" x2="53.74%" y1="0%" y2="100%"/><g fill="none" fill-rule="evenodd"><path fill="url(#b)" d="M15.048 20.02a4.8 4.8 0 1 1 4.152 2.391 4.77 4.77 0 0 1-4.152-2.391"/><path fill="#ffe16a" d="M19.2 5.578v7.233a4.8 4.8 0 0 0-4.152 7.209L9.6 23.165V11.119l9.599-5.542z"/><path fill="#ffc107" d="m9.6 11.119-3.343-1.93 9.6-5.542 3.342 1.93z"/><path fill="url(#c)" d="m15.857 3.647-9.6 5.542-2.446-1.412 9.598-5.542z"/><path fill="#ffe16a" d="m9.6.035 3.809 2.2-9.598 5.542H3.81l-3.809-2.2z"/><path fill="#ffc107" d="M9.6 11.119v12.046L0 17.622V5.577h.001l3.809 2.2v7.987l1.163-.48 1.267 1.44V9.199l.017-.01z"/><path fill="url(#d)" d="m6.257 9.189-.017.01v7.525l-1.267-1.44-1.163.48V7.777h.001z"/><path fill="#ffe16a" d="M1.242 17.719a.35.35 0 0 1-.35-.35v-1.297a.35.35 0 1 1 .7 0v1.296a.35.35 0 0 1-.35.35m1.42.831a.35.35 0 0 1-.35-.35v-1.168a.35.35 0 1 1 .7 0V18.2a.35.35 0 0 1-.35.35m1.422.82a.35.35 0 0 1-.35-.35v-1.028a.35.35 0 1 1 .7 0v1.028a.35.35 0 0 1-.35.35m1.421.821a.35.35 0 0 1-.35-.35v-.889a.35.35 0 1 1 .7 0v.889a.35.35 0 0 1-.35.35m1.421.84a.35.35 0 0 1-.35-.35v-.769a.35.35 0 1 1 .7 0v.768a.35.35 0 0 1-.35.35"/><path fill="#b78103" d="M11.589 18.047a.35.35 0 0 1-.175-.653l1.594-.92a.35.35 0 0 1 .35.606l-1.594.92a.35.35 0 0 1-.175.047"/><path fill="#005249" fill-rule="nonzero" d="M18.11 19.32a.35.35 0 0 1-.266-.123l-1.16-1.359a.35.35 0 1 1 .532-.454l.938 1.099 3.075-2.502a.35.35 0 1 1 .442.543l-3.34 2.718a.35.35 0 0 1-.221.078"/><path fill="#b78103" d="M12.543 11.332a.35.35 0 0 0-.563.074l-.845 1.572a.35.35 0 0 0 .308.516.36.36 0 0 0 .314-.184l.193-.348v3.009a.35.35 0 1 0 .7 0v-3.518l.285.307a.346.346 0 0 0 .6-.23.35.35 0 0 0-.096-.25z"/></g></svg>